# xmcd CD database file
#
# Track frame offsets:
#	150
#	18776
#	33795
#	68212
#	89324
#	101468
#	123764
#	156913
#	180037
#	200884
#	219696
#	248151
#	271002
#
# Disc length: 4037 seconds
#
# Revision: 0
# Processed by: cddbd v1.4b41PL2 Copyright (c) Steve Scherf et al.
# Submitted via: Feurio! 1.61 - http://www.feurio.com
#
DISCID=a10fc30d
DTITLE=Buddy Guy - Buddy Guy Collected
DYEAR=1900
DGENRE=
TTITLE0=Break Out All Over You (Poison Ivy)
TTITLE1=The Things I Used To Do (Live)
TTITLE2=Tell Me What's Inside of You (Live)
TTITLE3=You Can Make It If You Try
TTITLE4=Comin' On
TTITLE5=I Didn't Know My Mother Had a Son Like Me
TTITLE6=Breakin' Out On Top
TTITLE7=All Your Love
TTITLE8=Girl You're Nice and Clean
TTITLE9=Done Got Over You (Live)
TTITLE10=Have You Ever Been Lonesome?
TTITLE11=Love is Like Quicksand
TTITLE12=Blues at my Baby's House
EXTD=
EXTT0=
EXTT1=
EXTT2=
EXTT3=
EXTT4=
EXTT5=
EXTT6=
EXTT7=
EXTT8=
EXTT9=
EXTT10=
EXTT11=
EXTT12=
PLAYORDER=
